<!DOCTYPE svg PUBLIC "-//W3C//DTD SVG 1.1//EN" "http://www.w3.org/Graphics/SVG/1.1/DTD/svg11.dtd">
<!-- Uploaded to: SVG Repo, www.svgrepo.com, Transformed by: SVG Repo Mixer Tools -->
<svg fill="#ffffff" height="800px" width="800px" version="1.1" id="Layer_1" xmlns="http://www.w3.org/2000/svg" xmlns:xlink="http://www.w3.org/1999/xlink" viewBox="0 0 504.401 504.401" xml:space="preserve" stroke="#ffffff">
<g id="SVGRepo_bgCarrier" stroke-width="0"/>
<g id="SVGRepo_tracerCarrier" stroke-linecap="round" stroke-linejoin="round"/>
<g id="SVGRepo_iconCarrier"> <g transform="translate(1 1)"> <g> <g> <path d="M473.184,49.315H347.369L336.371,17.42c-3.357-13.43-16.787-20.984-30.216-17.626L22.456,64.424 C9.027,68.62,1.473,82.05,4.83,95.479l104.079,389.456c1.679,6.715,5.875,11.751,11.751,15.108 c4.197,2.518,8.393,3.357,12.59,3.357c1.679,0,4.197-0.839,6.715-0.839l23.003-5.873c4.362,3.687,10.066,5.873,16.446,5.873 h293.77c14.269,0,25.18-10.911,25.18-25.18V74.496C498.365,60.227,487.453,49.315,473.184,49.315z M135.768,486.614 c-2.518,0.839-5.036,0-6.715-0.839c-2.518-0.839-3.357-2.518-4.197-5.036L20.778,91.283c-0.839-5.036,1.679-9.233,5.875-10.911 l283.698-64.629c0.839,0,1.679,0,2.518,0c3.357,0,6.715,2.518,9.233,6.715l9.233,26.859H180.253h-0.839 c-14.269,0-25.18,10.911-25.18,25.18v402.885c0,1.481,0.124,2.924,0.351,4.324L135.768,486.614z M481.578,477.381 c0,5.036-3.357,8.393-8.393,8.393h-293.77c-2.423,0-4.452-0.784-5.911-2.152l-0.804-1.206c-0.839-1.679-1.679-3.357-1.679-5.036 V74.496c0-1.574,0.328-2.984,0.932-4.178c1.33-2.628,3.999-4.215,7.461-4.215h173.744v0h120.026c5.036,0,8.393,3.357,8.393,8.393 V477.381z"/> <path d="M305.315,99.676h142.689v242.57c0,5.036,3.357,8.393,8.393,8.393s8.393-3.357,8.393-8.393V91.283 c0-5.036-3.357-8.393-8.393-8.393H305.315c-5.036,0-8.393,3.357-8.393,8.393S300.279,99.676,305.315,99.676z"/> <path d="M364.07,452.201l-159.475,0.839V209.63c0-5.036-3.357-8.393-8.393-8.393s-8.393,3.357-8.393,8.393v251.803 c0,2.518,0.839,4.197,2.518,5.875c1.679,1.679,3.357,2.518,5.875,2.518l167.869-0.839c5.036,0,8.393-3.357,8.393-8.393 S369.106,452.201,364.07,452.201z"/> <path d="M416.109,333.853c10.911-10.911,15.948-25.18,15.108-40.289c-0.839-17.626-10.911-33.574-27.698-43.646 c-8.393-5.875-15.948-8.393-24.341-9.233c3.357-9.233,4.197-20.144,1.679-31.895c-4.197-21.823-20.984-39.449-42.807-43.646 c-16.787-4.197-33.574,0-47.003,10.911c-13.43,10.911-20.984,26.859-20.984,43.646c0,7.554,0.839,15.108,3.357,20.984 c-8.393,0-15.948,3.357-24.341,8.393c-16.787,10.911-26.859,26.02-27.698,43.646c-0.839,14.269,4.197,29.377,15.108,40.289 c10.911,11.751,26.02,18.466,41.967,18.466c4.197,0,7.554,0,11.751-1.679l-5.875,18.466c-1.679,3.357-0.839,7.554,0.839,10.911 c1.679,3.357,5.875,5.875,10.072,5.875h62.112c4.197,0,7.554-2.518,10.911-5.036c2.518-3.357,2.518-7.554,0.839-10.911 l-7.554-18.466c4.197,0.839,8.393,1.679,12.59,1.679C389.25,352.319,405.197,345.604,416.109,333.853z M374.142,334.692 c-6.715,0-15.108-2.518-21.823-6.715c-3.357-1.679-7.554-1.679-10.911,0.839l-5.036,4.197l13.43,35.252h-48.682l11.751-29.377 c0.839-3.357,0-7.554-3.357-10.072l-5.875-3.357l-5.036,3.357c-6.715,4.197-13.43,6.715-19.305,6.715 c-11.751,0-22.662-5.036-30.216-13.43c-6.715-8.393-10.911-18.466-10.072-28.538c0.839-11.751,8.393-22.662,20.144-30.216 c10.072-5.875,18.466-7.554,28.538-5.036l25.18,5.875l-16.787-19.305c-5.036-5.875-7.554-14.269-7.554-25.18 c0-11.751,5.036-22.662,14.269-30.216c9.233-7.554,20.984-10.072,32.734-7.554c14.269,3.357,26.859,15.108,29.377,30.216 c1.679,9.233,1.679,22.662-6.715,32.734l-16.787,19.305l25.18-5.875c9.233-2.518,16.787-2.518,28.538,5.036 c12.59,7.554,19.305,18.466,20.144,30.216c0,10.072-3.357,20.144-10.911,27.698C395.965,329.656,385.053,334.692,374.142,334.692 z"/> <path d="M116.463,317.906c-9.233-35.252-19.305-70.505-28.538-104.918c-0.839-4.197-5.875-6.715-10.072-5.875 c-4.197,0.839-6.715,5.875-5.875,10.072c9.233,34.413,18.466,69.666,27.698,104.918c10.072,36.092,20.144,72.184,29.377,107.436 c1.679,3.357,5.036,5.875,8.393,5.875c0.839,0,1.679,0,2.518,0c4.197-0.839,6.715-5.875,5.875-10.072 C135.768,389.25,126.535,353.997,116.463,317.906z"/> <path d="M75.335,166.824l3.629-17.626c0.337,0,0.568,0,0.568,0l32.734-8.393c0.599-0.12,1.159-0.333,1.684-0.609l10.906,12.36 c3.357,3.357,8.393,4.197,11.751,0.839s4.197-8.393,0.839-11.751L87.925,85.407c-1.679-2.518-5.036-3.357-8.393-2.518 c-2.518,0.839-5.036,3.357-5.875,6.715l-15.108,73.862c-0.839,5.036,2.518,9.233,6.715,10.072c0.839,0,0.839,0,1.679,0 C70.299,173.538,74.496,171.02,75.335,166.824z M101.829,126.457l-19.196,4.922l4.453-21.63L101.829,126.457z"/> <path d="M196.201,183.611c5.036,0,8.393-3.357,8.393-8.393v-29.713l6.715-8.058l28.538,42.807 c1.679,1.679,4.197,3.357,6.715,3.357c1.679,0,3.357-0.839,5.036-0.839c4.197-2.518,5.036-7.554,2.518-11.751l-31.46-47.19 l22.227-26.672c3.357-3.357,2.518-8.393-0.839-11.751c-3.357-3.357-8.393-2.518-11.751,0.839l-27.698,33.238V91.283 c0-5.036-3.357-8.393-8.393-8.393s-8.393,3.357-8.393,8.393v83.934C187.807,180.253,191.165,183.611,196.201,183.611z"/> <path d="M464.791,408.354V376.66c0-5.036-3.357-8.393-8.393-8.393s-8.393,3.357-8.393,8.393v31.559l-5.875,7.05l-28.538-42.807 c-2.518-4.197-7.554-5.036-11.751-2.518c-4.197,2.518-5.036,7.554-2.518,11.751l31.46,47.19l-22.227,26.672 c-3.357,3.357-2.518,8.393,0.839,11.751c0.839,0.839,3.357,1.679,5.036,1.679c2.518,0,5.036-0.839,6.715-2.518l26.859-32.231 v26.355c0,5.036,3.357,8.393,8.393,8.393s8.393-3.357,8.393-8.393v-47.072C465.411,411.872,465.37,410.071,464.791,408.354z"/> </g> </g> </g> </g>
</svg>