<!DOCTYPE svg PUBLIC "-//W3C//DTD SVG 1.1//EN" "http://www.w3.org/Graphics/SVG/1.1/DTD/svg11.dtd">

<!-- Uploaded to: SVG Repo, www.svgrepo.com, Transformed by: SVG Repo Mixer Tools -->
<svg width="800px" height="800px" viewBox="0 -9 50 50" version="1.1" xmlns="http://www.w3.org/2000/svg" xmlns:xlink="http://www.w3.org/1999/xlink" fill="#ffffff" stroke="#ffffff">

<g id="SVGRepo_bgCarrier" stroke-width="0"/>

<g id="SVGRepo_tracerCarrier" stroke-linecap="round" stroke-linejoin="round"/>

<g id="SVGRepo_iconCarrier"> <title>casino-cards</title> <desc>Created with Sketch.</desc> <g id="icons" stroke="none" stroke-width="1" fill="none" fill-rule="evenodd"> <g id="ui-gambling-website-lined-icnos-casinoshunter" transform="translate(-985.000000, -414.000000)" fill="#ffffff" fill-rule="nonzero"> <g id="square-filled" transform="translate(50.000000, 120.000000)"> <path d="M974.454729,320.621541 L976.009715,321.038198 C976.439113,321.153255 976.694245,321.593471 976.579569,322.021449 C976.464893,322.449426 976.023834,322.703099 975.594436,322.588042 L974.039449,322.171385 C973.610051,322.056328 973.354919,321.616112 973.469596,321.188134 C973.584272,320.760156 974.025331,320.506484 974.454729,320.621541 Z M967.244283,295.604517 L952.755717,295.604517 C951.866626,295.604517 951.145876,296.322883 951.145876,297.209033 L951.145876,318.067751 C951.145876,318.953901 951.866626,319.672267 952.755717,319.672267 L967.244283,319.672267 C968.133374,319.672267 968.854124,318.953901 968.854124,318.067751 L968.854124,297.209033 C968.854124,296.322883 968.133374,295.604517 967.244283,295.604517 Z M966.439363,316.463234 C966.883908,316.463234 967.244283,316.822417 967.244283,317.265492 C967.244283,317.708567 966.883908,318.067751 966.439363,318.067751 L964.829522,318.067751 C964.384977,318.067751 964.024602,317.708567 964.024602,317.265492 C964.024602,316.822417 964.384977,316.463234 964.829522,316.463234 L966.439363,316.463234 Z M970.463,310.822248 L971.545621,312.8186 L974.641674,310.918426 L974.751664,310.847288 C974.943355,310.705899 975.082496,310.503426 975.144603,310.271641 C975.217061,310.001225 975.178765,309.712934 975.038313,309.470166 C974.897571,309.227321 974.665897,309.049965 974.394423,308.977224 C974.162041,308.914957 973.91629,308.933824 973.697723,309.028539 L973.590892,309.082192 L973.052668,309.392089 C972.697464,309.595763 972.250937,309.499105 972.009424,309.181215 L971.953489,309.097179 L971.64213,308.559939 C971.501818,308.317414 971.270256,308.140106 970.998793,308.067367 C970.821912,308.019972 970.637564,308.01952 970.46322,308.063727 L970.463,310.822248 Z M961.757501,303.6271 C962.465785,303.6271 963.144467,303.907195 963.645048,304.406126 C964.14566,304.905089 964.427062,305.581958 964.427062,306.287446 C964.427062,306.989151 964.148946,307.66222 963.66011,308.153109 L960.585265,311.398266 C960.433376,311.558755 960.221388,311.649684 960,311.649684 C959.778612,311.649684 959.566624,311.558755 959.414913,311.398455 L956.346241,308.160078 C955.850914,307.662006 955.572938,306.988961 955.572938,306.287446 C955.572938,305.58177 955.854059,304.904956 956.354538,304.406126 C956.855018,303.907295 957.534073,303.6271 958.242085,303.6271 C958.890703,303.6271 959.515018,303.862257 959.999996,304.285239 L960.13562,304.174563 C960.598618,303.82141 961.167908,303.6271 961.757501,303.6271 Z M961.757501,305.231296 C961.516921,305.231296 961.284427,305.313125 961.097821,305.461182 L961.008517,305.540657 L960.568839,305.979297 C960.278453,306.267965 959.822124,306.29017 959.506565,306.045619 L959.430785,305.978924 L958.990988,305.540576 C958.792688,305.34263 958.523125,305.231296 958.242085,305.231296 C957.961162,305.231296 957.691856,305.342556 957.492967,305.54079 C957.294295,305.738808 957.182862,306.007138 957.182862,306.287446 C957.182862,306.52771 957.264731,306.759174 957.417768,306.949739 L957.500168,307.041465 L959.99999,309.679105 L962.498747,307.04236 L962.586577,306.945179 C962.735142,306.758994 962.817138,306.527408 962.817138,306.287446 C962.817138,306.007491 962.705532,305.738934 962.507033,305.54079 C962.308234,305.342647 962.038551,305.231296 961.757501,305.231296 Z M974.239731,308.142829 L974.228341,308.1425 L974.328044,308.150427 L974.239731,308.142829 Z M974.174607,308.139485 L974.021275,308.141175 L974.228341,308.1425 L974.174607,308.139485 Z M948.439614,307.427624 L948.391571,307.45188 L948.273,307.521851 L948.439614,307.427624 Z M956.377858,306.287446 L956.380953,306.394474 L956.383035,306.43 L956.377858,306.287446 Z M956.923706,304.973405 L956.977175,304.922354 L956.977175,304.922354 L956.923706,304.973405 L957.032359,304.873547 Z M961.381035,304.468 L961.328352,304.478995 L961.180682,304.520313 L961.381035,304.468 Z M961.479392,304.449851 L961.392122,304.465369 L961.381035,304.468 L961.479392,304.449851 Z M941.547051,302.590004 C941.661727,303.017982 941.406595,303.458198 940.977197,303.573255 L939.42221,303.989913 C938.992812,304.104969 938.551753,303.851297 938.437077,303.423319 C938.322401,302.995342 938.577533,302.555125 939.006931,302.440068 L940.561917,302.023411 C940.991315,301.908354 941.432374,302.162027 941.547051,302.590004 Z M970.463343,306.438934 C970.779314,306.408412 971.101308,306.434051 971.413989,306.517833 C972.040506,306.685708 972.582684,307.074436 972.941661,307.608527 L973.10131,307.536725 C973.639934,307.315437 974.240117,307.275092 974.80962,307.42769 C975.493769,307.611007 976.076832,308.057214 976.431223,308.668704 C976.785637,309.280233 976.882263,310.006871 976.69967,310.68832 C976.518055,311.366114 976.075213,311.944268 975.475982,312.29191 L971.666001,314.630663 C971.47775,314.746371 971.249451,314.779335 971.035607,314.722036 C970.821763,314.664737 970.640532,314.522039 970.53548,314.327936 L970.463,314.194248 L970.463965,318.067751 C970.463965,319.840051 969.022464,321.276784 967.244283,321.276784 L959.93,321.276248 L959.843308,321.366145 C959.466512,321.727094 958.994601,322.001158 958.45351,322.146142 L944.45863,325.896059 C942.741039,326.356286 940.976802,325.341596 940.518097,323.629686 L935.119464,303.481712 C934.660759,301.769801 935.681287,300.008936 937.398878,299.548709 L949.680278,296.256393 C950.087418,294.949257 951.310344,294 952.755717,294 L967.244283,294 C968.689656,294 969.912582,294.949257 970.319722,296.256393 L982.601122,299.548709 C984.318713,300.008936 985.339241,301.769801 984.880536,303.481712 L979.481903,323.629686 C979.023198,325.341596 977.258961,326.356286 975.54137,325.896059 L961.54649,322.146142 C960.962132,321.989564 960.458458,321.682438 960.066271,321.277911 L964.499,321.276248 L975.95665,324.346215 C976.815445,324.576329 977.697564,324.068984 977.926916,323.213028 L983.325549,303.065055 C983.554902,302.209099 983.044638,301.328667 982.185842,301.098553 L970.463745,297.957665 L970.463754,299.725982 C970.663988,299.922252 970.755569,300.217284 970.678016,300.506717 C970.6393,300.651205 970.563384,300.775826 970.463275,300.873099 L970.463343,306.438934 Z M955.170478,297.209033 C955.615023,297.209033 955.975398,297.568217 955.975398,298.011292 C955.975398,298.454367 955.615023,298.81355 955.170478,298.81355 L953.560637,298.81355 C953.116092,298.81355 952.755717,298.454367 952.755717,298.011292 C952.755717,297.568217 953.116092,297.209033 953.560637,297.209033 L955.170478,297.209033 Z M952.755717,321.276784 C950.977536,321.276784 949.536035,319.840051 949.536035,318.067751 L949.536,314.194248 L949.464644,314.327707 C949.359468,314.522039 949.178237,314.664737 948.964393,314.722036 C948.750549,314.779335 948.52225,314.746371 948.33422,314.630799 L944.531957,312.296998 C943.924597,311.944097 943.481896,311.365932 943.30033,310.68832 C943.117688,310.006689 943.214057,309.280178 943.568376,308.668811 C943.922696,308.057444 944.506093,307.611044 945.18998,307.427797 C945.816497,307.259922 946.480401,307.325481 947.05833,307.608529 L947.160689,307.466522 C947.516507,307.00557 948.016108,306.670538 948.585611,306.517941 C948.898601,306.434075 949.22078,306.408438 949.536894,306.439044 L949.536,297.957 L937.814158,301.098553 C936.955362,301.328667 936.445098,302.209099 936.674451,303.065055 L942.073084,323.213028 C942.302436,324.068984 943.184555,324.576329 944.04335,324.346215 L955.5,321.276248 L952.755717,321.276784 Z M949.536747,308.063778 C949.362309,308.019594 949.177768,308.020058 949.000807,308.067474 C948.768425,308.129741 948.565032,308.268956 948.423104,308.460265 L948.357413,308.560145 L948.046246,309.097637 C947.840467,309.451625 947.405434,309.59118 947.037333,309.436635 L946.946873,309.391826 L946.408609,309.082242 C946.165833,308.942365 945.87664,308.904593 945.605177,308.977331 C945.333826,309.050039 945.102493,309.22721 944.961687,309.470166 C944.821035,309.712856 944.782848,310.000884 944.855397,310.271641 C944.917582,310.503718 945.056569,310.706106 945.253714,310.850569 L945.357046,310.917843 L948.45436,312.818605 L949.536,310.822248 L949.536747,308.063778 Z" id="casino-cards"> </path> </g> </g> </g> </g>

</svg>