<!DOCTYPE svg PUBLIC "-//W3C//DTD SVG 1.1//EN" "http://www.w3.org/Graphics/SVG/1.1/DTD/svg11.dtd">
<!-- Uploaded to: SVG Repo, www.svgrepo.com, Transformed by: SVG Repo Mixer Tools -->
<svg fill="#ffffff" height="800px" width="800px" version="1.1" id="Layer_1" xmlns="http://www.w3.org/2000/svg" xmlns:xlink="http://www.w3.org/1999/xlink" viewBox="0 0 512 512" xml:space="preserve" stroke="#ffffff">
<g id="SVGRepo_bgCarrier" stroke-width="0"/>
<g id="SVGRepo_tracerCarrier" stroke-linecap="round" stroke-linejoin="round"/>
<g id="SVGRepo_iconCarrier"> <g> <g> <path d="M403.925,159.851c-0.966-4.865-5.672-8.05-10.581-7.049c-0.404,0.079-40.603,7.692-72.802-24.516 c-12.074-12.074-14.813-28.547-17.465-44.475c-4.452-26.747-9.492-57.126-60.825-57.126c-57.666,0-77.1,42.651-80.389,71.873 h-27.51c-4.97,0-7.949,4.14-7.949,9.11v41.946C49.976,169.758,0,236.545,0,314.475c0,94.201,76.38,170.84,170.581,170.84 c94.201,0,171.231-76.639,171.231-170.84c0-77.93-51.311-144.717-125.492-164.86v-41.946c0-4.97-5.064-9.11-10.034-9.11h-26.147 c2.669-17.983,14.001-53.89,62.113-53.89c36.089,0,38.724,15.852,43.088,42.062c2.968,17.851,6.34,38.107,22.488,54.255 c26.158,26.158,56.452,30.643,74.128,30.643c8.631,0,14.251-1.067,14.919-1.199C401.739,169.455,404.9,164.724,403.925,159.851z M198.337,116.541v40.098c0,4.197,2.384,7.841,6.476,8.772c70.001,15.876,118.625,77.175,118.625,149.064 c0,84.287-68.701,152.857-152.988,152.857c-84.287,0-152.921-68.57-152.921-152.857c0-71.889,49.37-133.188,119.371-149.064 c4.092-0.931,7.488-4.575,7.488-8.772v-40.098H198.337z"/> </g> </g> <g> <g> <path d="M503.008,152.508h-9.764l6.902-6.842c3.512-3.512,3.512-9.174,0-12.686s-8.682-3.497-12.194,0.015l-10.875,11.413v-18.756 c0-4.97-4.022-8.992-8.992-8.992s-8.992,4.022-8.992,8.992v16.122l-9.286-8.763c-3.512-3.512-9.461-3.512-12.973,0 s-3.644,9.143-0.132,12.655l6.772,6.842h-12.399c-4.97,0-8.992,4.022-8.992,8.992c0,4.97,4.022,8.992,8.992,8.992h18.756 l-13.259,13.318c-3.512,3.512-3.512,9.231,0,12.743c1.756,1.756,4.057,2.65,6.358,2.65c2.3,0,5.121-0.872,6.877-2.628l9.286-8.754 v9.764c0,4.97,4.022,8.992,8.992,8.992s8.992-4.021,8.992-8.992v-12.398l10.875,11.398c1.756,1.756,3.798,2.634,6.098,2.634 c2.3,0,4.469-0.878,6.226-2.634c3.512-3.512,3.449-9.262-0.064-12.774l-13.325-13.318h16.121c4.97,0,8.992-4.022,8.992-8.992 C512,156.53,507.979,152.508,503.008,152.508z"/> </g> </g> </g>
</svg>