<?xml version="1.0" encoding="iso-8859-1"?>
<!-- Uploaded to: SVG Repo, www.svgrepo.com, Generator: SVG Repo Mixer Tools -->
<svg fill="#000000" height="800px" width="800px" version="1.1" id="Layer_1" xmlns="http://www.w3.org/2000/svg" xmlns:xlink="http://www.w3.org/1999/xlink" 
	 viewBox="0 0 512 512" xml:space="preserve">
<g>
	<g>
		<g>
			<path d="M256,93.867c-89.543,0-162.133,72.591-162.133,162.133S166.457,418.133,256,418.133S418.133,345.543,418.133,256
				S345.543,93.867,256,93.867z M256,401.067c-80.117,0-145.067-64.95-145.067-145.067S175.883,110.933,256,110.933
				S401.067,175.883,401.067,256S336.117,401.067,256,401.067z"/>
			<path d="M256,0C114.839,0,0,114.839,0,256s114.839,256,256,256s256-114.839,256-256S397.161,0,256,0z M494.765,247.467h-25.616
				c-2.065-52.475-23.077-100.075-56.394-136.153l18.028-18.028C468.746,134.036,492.666,188.022,494.765,247.467z M111.314,412.754
				c36.078,33.317,83.678,54.329,136.153,56.394v25.616c-59.445-2.099-113.43-26.019-154.181-63.982L111.314,412.754z
				 M264.533,469.149c52.475-2.065,100.075-23.077,136.153-56.394l18.028,18.028c-40.751,37.963-94.736,61.883-154.181,63.982
				V469.149z M256,452.267c-108.396,0-196.267-87.87-196.267-196.267S147.604,59.733,256,59.733S452.267,147.604,452.267,256
				S364.397,452.267,256,452.267z M400.686,99.246c-36.078-33.317-83.678-54.329-136.153-56.394V17.235
				c59.445,2.099,113.43,26.019,154.181,63.982L400.686,99.246z M247.467,42.851c-52.475,2.065-100.075,23.077-136.153,56.394
				L93.285,81.218c40.751-37.963,94.736-61.883,154.181-63.982V42.851z M81.218,93.285l18.028,18.028
				c-33.317,36.078-54.329,83.678-56.394,136.153H17.235C19.334,188.022,43.254,134.036,81.218,93.285z M17.235,264.533h25.616
				c2.065,52.475,23.077,100.075,56.394,136.153l-18.028,18.028C43.254,377.964,19.334,323.978,17.235,264.533z M430.782,418.714
				l-18.028-18.028c33.317-36.078,54.329-83.678,56.394-136.153h25.616C492.666,323.978,468.746,377.964,430.782,418.714z"/>
			<path d="M264.533,248.005v-68.302c10.87,1.319,19.73,5.222,25.6,11.264v22.367c0,4.713,3.82,8.533,8.533,8.533
				s8.533-3.821,8.533-8.533v-51.2c0-4.713-3.82-8.533-8.533-8.533s-8.533,3.82-8.533,8.533v7.773
				c-7.411-3.979-16.091-6.444-25.6-7.357V153.6c0-4.713-3.82-8.533-8.533-8.533s-8.533,3.821-8.533,8.533v9.071
				c-28.002,3.514-51.2,24.028-51.2,50.662c0,26.755,23.143,47.178,51.2,50.667v68.268c-10.696-1.368-19.775-5.327-25.6-11.25
				v-22.351c0-4.713-3.821-8.533-8.533-8.533c-4.713,0-8.533,3.82-8.533,8.533v51.2c0,4.713,3.821,8.533,8.533,8.533
				c4.713,0,8.533-3.82,8.533-8.533v-7.872c7.469,3.99,16.211,6.493,25.6,7.435v8.971c0,4.713,3.82,8.533,8.533,8.533
				s8.533-3.82,8.533-8.533v-9.062c28.112-3.465,51.2-23.797,51.2-50.672C315.733,272.033,292.535,251.518,264.533,248.005z
				 M213.333,213.333c0-16.439,14.987-30.206,34.133-33.422v66.854C228.268,243.576,213.333,229.878,213.333,213.333z
				 M264.533,332.107v-66.863c19.146,3.216,34.133,16.983,34.133,33.422C298.667,315.317,283.785,328.947,264.533,332.107z"/>
		</g>
	</g>
</g>
</svg>