<!DOCTYPE svg PUBLIC "-//W3C//DTD SVG 1.1//EN" "http://www.w3.org/Graphics/SVG/1.1/DTD/svg11.dtd">
<!-- Uploaded to: SVG Repo, www.svgrepo.com, Transformed by: SVG Repo Mixer Tools -->
<svg fill="#ffffff" height="800px" width="800px" version="1.1" id="Layer_1" xmlns="http://www.w3.org/2000/svg" xmlns:xlink="http://www.w3.org/1999/xlink" viewBox="0 0 512 512" xml:space="preserve" stroke="#ffffff">
<g id="SVGRepo_bgCarrier" stroke-width="0"/>
<g id="SVGRepo_tracerCarrier" stroke-linecap="round" stroke-linejoin="round"/>
<g id="SVGRepo_iconCarrier"> <g> <g> <path d="M256,0C114.843,0,0,114.843,0,256s114.843,256,256,256c141.157,0,256-114.843,256-256S397.157,0,256,0z M320.216,29.266 c82.824,23.355,145.319,89.374,165.164,172.197h-52.034c-17.081-55.216-59.401-99.013-112.787-119.054 c0.101-0.573-0.343-1.494-0.343-2.096V29.266z M421.647,256c0,91.338-74.309,165.647-165.647,165.647 c-91.338,0-165.647-74.309-165.647-165.647c0-91.337,74.309-165.647,165.647-165.647C347.338,90.353,421.647,164.663,421.647,256z M209.784,24.437c15.059-2.849,29.728-4.359,45.176-4.359s32.627,1.51,45.176,4.359v51.42c-12.549-3.63-29.597-5.583-45.176-5.583 s-30.118,1.953-45.176,5.583V24.437z M189.706,29.266v51.048c0,0.602,0.596,1.523,0.696,2.096 c-53.381,20.039-95.001,63.838-112.017,119.054h-52.73C45.625,118.64,109.143,52.621,189.706,29.266z M19.039,256.679 c0-11.944,0.948-25.098,2.681-35.137h51.632c-2.179,10.039-3.338,23.125-3.338,35.137c0,19.224,2.939,37.647,8.352,55.216H25.654 C21.36,294.326,19.039,275.692,19.039,256.679z M189.706,431.686v51.049C115.799,461.31,56.224,404.757,31.463,331.973h54.431 c20.071,45.176,57.699,80.775,104.377,98.296C190.171,430.842,189.706,431.086,189.706,431.686z M300.137,487.564 c-12.549,2.849-29.728,4.358-45.176,4.358s-30.118-1.509-45.176-4.358v-51.42c15.059,3.63,29.597,5.582,45.176,5.582 s32.627-1.952,45.176-5.582V487.564z M320.216,482.735v-51.049c0-0.601,0.444-0.844,0.343-1.417 c46.677-17.522,84.975-53.12,105.159-98.297H479.6C454.974,404.757,395.51,461.309,320.216,482.735z M433.346,311.895 c5.445-17.569,8.38-35.996,8.38-55.216c0-12.015-1.189-25.098-3.377-35.137h50.955c1.719,10.039,2.619,23.199,2.619,35.137 c0,19.01-2.276,37.647-6.542,55.216H433.346z"/> </g> </g> </g>
</svg>