<?xml version="1.0" encoding="iso-8859-1"?>
<!-- Uploaded to: SVG Repo, www.svgrepo.com, Generator: SVG Repo Mixer Tools -->
<svg height="800px" width="800px" version="1.1" id="Layer_1" xmlns="http://www.w3.org/2000/svg" xmlns:xlink="http://www.w3.org/1999/xlink" 
	 viewBox="0 0 512.001 512.001" xml:space="preserve">
<polygon style="fill:#82DCC7;" points="256.994,443.475 9.752,194.197 104.191,68.729 409.799,68.729 504.237,194.197 "/>
<g>
	<polygon style="fill:#95E5D0;" points="504.236,194.202 256.994,443.475 385.45,194.202 	"/>
	<polygon style="fill:#95E5D0;" points="256.994,194.202 256.994,443.475 128.539,194.202 	"/>
	<polygon style="fill:#95E5D0;" points="104.191,68.724 128.539,194.202 9.752,194.202 	"/>
</g>
<polygon style="fill:#A5EAD6;" points="385.45,194.202 256.994,194.202 256.994,68.724 "/>
<g>
	<polygon style="fill:#74CBB4;" points="409.798,68.724 504.236,194.202 385.45,194.202 	"/>
	<polygon style="fill:#74CBB4;" points="385.45,194.202 256.994,443.475 256.994,194.202 	"/>
	<polygon style="fill:#74CBB4;" points="256.994,68.724 128.539,194.202 104.191,68.724 	"/>
</g>
<path d="M510.241,188.829L415.802,63.361c-1.655-2.198-4.246-3.492-6.997-3.492H103.197c-2.751,0-5.343,1.293-6.997,3.492
	L1.761,188.829c-2.617,3.476-2.285,8.345,0.779,11.435l54.211,54.657c3.406,3.433,8.952,3.455,12.387,0.05
	c3.434-3.406,3.457-8.952,0.05-12.387l-39.407-39.73h92.426l99.948,193.957L93.617,267.216c-3.408-3.436-8.953-3.457-12.387-0.051
	c-3.434,3.406-3.457,8.952-0.05,12.387l168.602,169.991c1.644,1.657,3.883,2.59,6.218,2.59c2.336,0,4.574-0.933,6.218-2.59
	l247.242-249.278C512.525,197.174,512.856,192.304,510.241,188.829z M352.382,256.338c-4.299-2.216-9.582-0.527-11.798,3.773
	l-75.825,147.146V202.854h105.33l-10.369,20.122c-2.215,4.3-0.526,9.582,3.773,11.798c4.301,2.215,9.582,0.527,11.798-3.773
	l14.503-28.147h92.425l-192.37,193.957l66.306-128.675C358.371,263.836,356.681,258.554,352.382,256.338z M116.925,185.337H26.313
	L98.35,89.629L116.925,185.337z M113.819,77.386H234.5L133.05,176.477L113.819,77.386z M247.243,89.425v95.912h-98.195
	L247.243,89.425z M264.76,89.425l98.195,95.912H264.76L264.76,89.425L264.76,89.425z M277.501,77.386h120.683l-19.231,99.093
	L277.501,77.386z M395.077,185.337L413.65,89.63l72.038,95.707H395.077z M247.243,202.854v204.404l-105.33-204.404H247.243z"/>
</svg>